<?xml version="1.0" encoding="UTF-8"?>
<svg id="Layer_1" data-name="Layer 1" xmlns="http://www.w3.org/2000/svg" viewBox="0 0 714.22 122.58">
  <defs>
    <style>
      .cls-1 {
        fill: #fff;
      }
    </style>
  </defs>
  <g>
    <path class="cls-1" d="M42.02,86.42c-5.56,0-9.21-3.01-9.76-8.3h-.46c-1.64,6.11-7.11,9.4-14.32,9.4-9.12,0-15.14-5.2-15.14-14.05,0-9.85,7.39-14.5,21.16-14.5h7.57v-2.37c0-5.56-2.37-8.48-8.57-8.48-5.66,0-8.94,2.46-11.49,5.93l-7.39-6.57c3.1-5.29,9.94-9.21,20.43-9.21,12.86,0,20.52,5.93,20.52,17.79v20.62h5.2v9.76h-7.75ZM31.07,71.92v-5.66h-7.21c-5.38,0-8.3,1.92-8.3,5.56v1.82c0,3.28,2.74,5.02,7.02,5.02,4.74,0,8.48-2.37,8.48-6.75Z"/>
    <path class="cls-1" d="M59.07,75.93h10.85v-26.09h-10.85v-10.49h24.35v13.32h.64c1.73-6.93,5.75-13.32,15.05-13.32h4.47v12.41h-10.03c-6.66,0-10.13,4.56-10.13,10.22v13.96h15.51v10.49h-39.86v-10.49Z"/>
    <path class="cls-1" d="M142.9,77.85h-.64c-2.37,5.66-6.39,9.67-13.96,9.67-10.4,0-17.7-7.57-17.7-24.63s7.3-24.63,17.7-24.63c7.57,0,11.58,4.01,13.96,9.67h.64v-8.57h13.5v65.31h-13.5v-26.82ZM142.9,69.82v-13.86c0-4.93-4.01-7.21-8.76-7.21-6.02,0-9.49,3.92-9.49,10.49v7.3c0,6.57,3.47,10.49,9.49,10.49,4.74,0,8.76-2.28,8.76-7.21Z"/>
    <path class="cls-1" d="M197.08,77.85h-.55c-2.1,5.29-6.29,9.67-13.86,9.67-9.03,0-15.32-6.29-15.32-17.7v-30.47h13.5v28.64c0,5.93,2.65,9.12,7.94,9.12,4.2,0,8.3-2.28,8.3-6.84v-30.92h13.5v47.07h-13.5v-8.57Z"/>
    <path class="cls-1" d="M225.08,75.93h14.96v-26.09h-14.96v-10.49h28.46v36.58h13.86v10.49h-42.32v-10.49ZM238.68,26.95v-2.65c0-3.65,2.1-6.39,8.12-6.39s8.12,2.74,8.12,6.39v2.65c0,3.56-2.1,6.39-8.12,6.39s-8.12-2.83-8.12-6.39Z"/>
    <path class="cls-1" d="M288.75,86.42l-16.88-47.07h14.23l6.11,20.16,4.47,15.69h.73l4.47-15.69,6.11-20.16h13.68l-16.88,47.07h-16.05Z"/>
    <path class="cls-1" d="M327.88,62.89c0-15.23,8.94-24.63,23.63-24.63s23.63,9.4,23.63,24.63-8.94,24.63-23.63,24.63-23.63-9.4-23.63-24.63ZM361.18,66.63v-7.48c0-6.93-3.65-10.85-9.67-10.85s-9.67,3.92-9.67,10.85v7.48c0,6.93,3.65,10.85,9.67,10.85s9.67-3.92,9.67-10.85Z"/>
    <path class="cls-1" d="M386.62,79.94v-3.19c0-4.1,2.74-7.57,9.58-7.57s9.58,3.47,9.58,7.57v3.19c0,4.1-2.74,7.57-9.58,7.57s-9.58-3.47-9.58-7.57Z"/>
    <path class="cls-1" d="M418.91,39.35h13.5v8.57h.64c2.37-5.66,6.39-9.67,13.96-9.67,10.4,0,17.7,7.57,17.7,24.63s-7.3,24.63-17.7,24.63c-7.57,0-11.58-4.01-13.96-9.67h-.64v26.82h-13.5V39.35ZM450.66,66.53v-7.3c0-6.57-3.47-10.49-9.49-10.49-4.74,0-8.76,2.28-8.76,7.21v13.86c0,4.93,4.01,7.21,8.76,7.21,6.02,0,9.49-3.92,9.49-10.49Z"/>
    <path class="cls-1" d="M499.27,86.42c-9.76,0-14.41-5.66-14.41-13.59v-22.99h-12.77v-10.49h8.3c4.01,0,5.56-1.37,5.56-5.56v-11.04h12.41v16.6h18.33v10.49h-18.33v26.09h18.33v10.49h-17.42Z"/>
  </g>
  <path class="cls-1" d="M629.69,49.74h13.24v5.68h-13.24v25.32h13.24v5.68h-30.6v-5.68h10.91v-25.32h-10.91v-5.68h8.56c1.3,0,2.35-1.05,2.35-2.35v-3.57c0-1.45.58-2.84,1.61-3.87l6.12-6.1c1.03-1.03,2.42-1.57,3.88-1.57h8.09v5.65h-13.24v11.82ZM660.97,32.27h13.83v5.68h-19.07v27.71h19.07v5.68h-13.83c-1.45,0-2.85-.58-3.88-1.6l-6.21-6.2c-1.03-1.03-1.61-2.42-1.61-3.87v-15.72c0-1.45.58-2.84,1.61-3.87l6.21-6.2c1.03-1.03,2.42-1.6,3.88-1.6ZM691.51,60.19v-22.24h-10.73v-5.68h8.38c1.3,0,2.35-1.05,2.35-2.35v-6.74h6.45v9.09h13.91v5.68h-13.91v27.71h13.91v5.68h-9.9c-1.58,0-3.09-.68-4.13-1.87l-4.97-5.67c-.87-1-1.36-2.28-1.36-3.6ZM649.27,80.74v5.68h62.61v-5.68h-62.61Z"/>
  <rect class="cls-1" x="569.49" y="2.47" width="1" height="117.65"/>
</svg>