<?xml version="1.0" encoding="utf-8"?>
<!-- Generator: Adobe Illustrator 23.1.0, SVG Export Plug-In . SVG Version: 6.00 Build 0)  -->
<svg version="1.1" id="Layer_1" xmlns="http://www.w3.org/2000/svg" xmlns:xlink="http://www.w3.org/1999/xlink" x="0px" y="0px"
	 viewBox="0 0 464 230.2" style="enable-background:new 0 0 464 230.2;" xml:space="preserve">
<style type="text/css">
	.st0{fill:#FFFFFF;}
</style>
<g>
	<path class="st0" d="M114.4,4.6H57.8c-25.9,0-46.9,21-46.9,46.9v121.2c0,25.9,21,46.9,46.9,46.9h56.6V4.6z"/>
	<path class="st0" d="M407.1,4.6h-55.7v215.1h55.7c25.9,0,46.9-21,46.9-46.9V51.6C454.1,25.6,433.1,4.6,407.1,4.6z"/>
</g>
<path class="st0" d="M144.5,4.6v215.1h176.8V4.6H144.5z M195.3,169.7c-12.1,0-21.9-9.8-21.9-21.9s9.8-21.9,21.9-21.9
	s21.9,9.8,21.9,21.9S207.4,169.7,195.3,169.7z M195.3,98.5c-12.1,0-21.9-9.8-21.9-21.9s9.8-21.9,21.9-21.9s21.9,9.8,21.9,21.9
	S207.4,98.5,195.3,98.5z M269.7,169.7c-12.1,0-21.9-9.8-21.9-21.9s9.8-21.9,21.9-21.9s21.9,9.8,21.9,21.9S281.8,169.7,269.7,169.7z
	 M269.7,98.5c-12.1,0-21.9-9.8-21.9-21.9s9.8-21.9,21.9-21.9s21.9,9.8,21.9,21.9S281.8,98.5,269.7,98.5z"/>
</svg>
