<?xml version="1.0" encoding="utf-8"?>
<!-- Generator: Adobe Illustrator 24.1.3, SVG Export Plug-In . SVG Version: 6.00 Build 0)  -->
<svg version="1.1" id="Layer_1" xmlns="http://www.w3.org/2000/svg" xmlns:xlink="http://www.w3.org/1999/xlink" x="0px" y="0px"
	 viewBox="0 0 34.6 34.6" style="enable-background:new 0 0 34.6 34.6;" xml:space="preserve">
<style type="text/css">
	.st0{fill:#033F72;}
</style>
<g id="Group_1" transform="translate(-133.971 -186.66)">
	<path id="Path_1" class="st0" d="M160.8,195.9v-0.8h-6.4v0.8c0.4,0,0.9,0,1.3,0c0.7,0,1.3,0.5,1.3,1.2v0.1c0,2.2,0,4.4,0,6.6
		c0,1.1,0,2.3,0,3.4c0,0.1,0,0.2,0,0.3c-0.4,0.1-0.9-0.1-1.1-0.5c-1.5-1.8-3-3.6-4.5-5.4c-1.8-2.1-3.5-4.2-5.3-6.3
		c-0.1-0.1-0.2-0.1-0.3-0.2c-1.5,0-3,0-4.6,0v0.8c0.4,0,0.9,0,1.3,0c0.2,0,0.3,0.1,0.4,0.2c0.6,0.7,1.2,1.4,1.8,2.1
		c0.1,0.1,0.1,0.2,0.1,0.3c0,3.1,0,6.2-0.1,9.3v0.1c-3.2,0.6-6.4,1.4-9.5,2.6c-3.6-8.8,0.7-18.9,9.5-22.5s18.9,0.7,22.5,9.5
		c1.7,4.3,1.7,9.1-0.1,13.3c-2.8-1.4-5.8-2.4-9-3c0-0.1,0-0.2,0-0.3c0-3.4,0-6.8,0-10.1c-0.1-0.7,0.4-1.3,1.1-1.4c0.1,0,0.2,0,0.4,0
		C160,195.9,160.4,195.9,160.8,195.9z"/>
	<path id="Path_2" class="st0" d="M144.8,209.5c0,0.7,0,1.3-0.1,1.9c-0.1,0.5-0.6,0.8-1.1,0.8h-1.4v0.8h6.5v-0.8h-1.4
		c-0.6,0.1-1.2-0.4-1.2-1c0-0.1,0-0.1,0-0.2c0-0.6,0-1.2,0-1.7c0,0,0,0,0.1-0.1c7-0.9,14.1-0.1,20.8,2.3c-2.9,5.5-7.3,8.8-13.3,9.6
		c-6.9,1-13.7-2.4-17.2-8.4C139,211.1,141.8,210.1,144.8,209.5z"/>
	<path id="Path_3" class="st0" d="M152.5,207.2l-6.5,0.4v-7.9L152.5,207.2z"/>
</g>
</svg>
