<?xml version="1.0" encoding="utf-8"?>
<!-- Generator: Adobe Illustrator 23.1.0, SVG Export Plug-In . SVG Version: 6.00 Build 0)  -->
<svg version="1.1" id="Layer_1" xmlns="http://www.w3.org/2000/svg" xmlns:xlink="http://www.w3.org/1999/xlink" x="0px" y="0px"
	 viewBox="0 0 66.46 65.12" style="enable-background:new 0 0 66.46 65.12;" xml:space="preserve">
<style type="text/css">
	.st0{fill:#FFFFFF;}
	.st1{fill:none;stroke:#FFFFFF;stroke-width:2.7775;stroke-miterlimit:10;}
</style>
<circle class="st0" cx="22.65" cy="23.9" r="6.98"/>
<path class="st0" d="M1.98,1.31v62.49h62.49V1.31H1.98z M61.06,60.39H5.41V4.74h55.65V60.39z"/>
<g>
	<path class="st0" d="M61.06,47.34l0-22.66L51.03,34.71C56.77,36.06,61.04,41.2,61.06,47.34z"/>
	<path class="st0" d="M35.04,47.38c0-3.46,1.35-6.59,3.55-8.92l-3.36-2.84L17,55.64H5.41v4.74h42.64
		C40.86,60.39,35.04,54.56,35.04,47.38z"/>
	<path class="st0" d="M48.05,60.39h13.01l0-12.98C61.04,54.58,55.22,60.39,48.05,60.39z"/>
</g>
<polygon class="st0" points="55.55,45.02 50.41,45.02 50.41,39.87 45.69,39.87 45.69,45.02 40.55,45.02 40.55,49.74 45.69,49.74 
	45.69,54.88 50.41,54.88 50.41,49.74 55.55,49.74 "/>
<circle class="st1" cx="48.05" cy="47.38" r="13.01"/>
</svg>
