<?xml version="1.0" encoding="utf-8"?>
<!-- Generator: Adobe Illustrator 24.1.1, SVG Export Plug-In . SVG Version: 6.00 Build 0)  -->
<svg version="1.1" id="Layer_1" xmlns="http://www.w3.org/2000/svg" xmlns:xlink="http://www.w3.org/1999/xlink" x="0px" y="0px"
	 viewBox="0 0 66.5 65.1" style="enable-background:new 0 0 66.5 65.1;" xml:space="preserve">
<style type="text/css">
	.st0{fill:#1C75C0;}
	.st1{fill:#FFFFFF;}
	.st2{fill:none;stroke:#FFFFFF;stroke-width:2.7775;stroke-miterlimit:10;}
</style>
<circle class="st0" cx="22.6" cy="23.9" r="7"/>
<path class="st0" d="M2,1.3v62.5h62.5V1.3H2z M61.1,60.4H5.4V4.7h55.7V60.4z"/>
<g>
	<path class="st0" d="M61.1,47.3V24.7l-10,10C56.8,36.1,61,41.2,61.1,47.3z"/>
	<path class="st0" d="M35,47.4c0-3.5,1.3-6.6,3.5-8.9l-3.4-2.8L17,55.6H5.4v4.7H48C40.9,60.4,35,54.6,35,47.4z"/>
	<path class="st0" d="M48,60.4h13v-13C61,54.6,55.2,60.4,48,60.4z"/>
</g>
<polygon class="st1" points="55.5,45 50.4,45 50.4,39.9 45.7,39.9 45.7,45 40.5,45 40.5,49.7 45.7,49.7 45.7,54.9 50.4,54.9 
	50.4,49.7 55.5,49.7 "/>
<circle class="st2" cx="48" cy="47.4" r="13"/>
</svg>
