<?xml version="1.0" encoding="utf-8"?>
<!-- Generator: Adobe Illustrator 23.1.0, SVG Export Plug-In . SVG Version: 6.00 Build 0)  -->
<svg version="1.1" id="Layer_1" xmlns="http://www.w3.org/2000/svg" xmlns:xlink="http://www.w3.org/1999/xlink" x="0px" y="0px"
	 viewBox="0 0 66.46 65.12" style="enable-background:new 0 0 66.46 65.12;" xml:space="preserve">
<style type="text/css">
	.st0{fill:#FFFFFF;stroke:#000000;stroke-miterlimit:10;}
	.st1{fill:#FFFFFF;}
	.st2{fill:none;stroke:#FFFFFF;stroke-width:2.7775;stroke-miterlimit:10;}
</style>
<circle cx="22.65" cy="23.9" r="6.98"/>
<path d="M1.98,1.31v62.49h62.49V1.31H1.98z M61.06,60.39H5.41V4.74h55.65V60.39z"/>
<g>
	<path d="M61.06,47.34l0-22.66L51.03,34.71C56.77,36.06,61.04,41.2,61.06,47.34z"/>
	<path d="M35.04,47.38c0-3.46,1.35-6.59,3.55-8.92l-3.36-2.84L17,55.64H5.41v4.74h42.64C40.86,60.39,35.04,54.56,35.04,47.38z"/>
	<path d="M48.05,60.39h13.01l0-12.98C61.04,54.58,55.22,60.39,48.05,60.39z"/>
</g>
<polygon class="st0" points="55.55,45.02 50.41,45.02 50.41,39.87 45.69,39.87 45.69,45.02 40.55,45.02 40.55,49.74 45.69,49.74 
	45.69,54.88 50.41,54.88 50.41,49.74 55.55,49.74 "/>
<circle class="st0" cx="48.05" cy="47.38" r="13.01"/>
<circle class="st1" cx="-58.58" cy="23.9" r="6.98"/>
<path class="st1" d="M-79.25,1.31v62.49h62.49V1.31H-79.25z M-20.18,60.39h-55.65V4.74h55.65V60.39z"/>
<g>
	<path class="st1" d="M-20.17,47.34l0-22.66L-30.2,34.71C-24.46,36.06-20.19,41.2-20.17,47.34z"/>
	<path class="st1" d="M-46.19,47.38c0-3.46,1.35-6.59,3.55-8.92L-46,35.61l-18.23,20.04h-11.59v4.74h42.64
		C-40.37,60.39-46.19,54.56-46.19,47.38z"/>
	<path class="st1" d="M-33.18,60.39h13.01l0-12.98C-20.19,54.58-26.01,60.39-33.18,60.39z"/>
</g>
<polygon class="st1" points="-25.68,45.02 -30.82,45.02 -30.82,39.87 -35.54,39.87 -35.54,45.02 -40.68,45.02 -40.68,49.74 
	-35.54,49.74 -35.54,54.88 -30.82,54.88 -30.82,49.74 -25.68,49.74 "/>
<circle class="st2" cx="-33.18" cy="47.38" r="13.01"/>
<polygon points="55.55,45 50.42,45 50.42,39.87 45.68,39.87 45.68,45 40.55,45 40.55,49.74 45.68,49.74 45.68,54.87 50.42,54.87 
	50.42,49.74 55.55,49.74 "/>
</svg>
